<svg xmlns="http://www.w3.org/2000/svg" width="24" height="24" viewBox="0 0 24 24" fill="#000"><path d="M21.35,11.1H12.18V13.83H18.69C18.36,17.64 15.19,19.27 12.19,19.27C8.36,19.27 5,16.25 5,12C5,7.9 8.2,4.73 12.19,4.73C15.29,4.73 17.1,6.7 17.1,6.7L19,4.72C19,4.72 16.56,2 12.19,2C6.42,2 2.03,6.8 2.03,12C2.03,17.05 6.16,22 12.25,22C17.6,22 21.5,18.33 21.5,12.91C21.5,11.76 21.35,11.1 21.35,11.1V11.1Z" fill="#4285F4"/><path d="M21.35,11.1H12.18V13.83H18.69C18.36,17.64 15.19,19.27 12.19,19.27C8.36,19.27 5,16.25 5,12C5,7.9 8.2,4.73 12.19,4.73C15.29,4.73 17.1,6.7 17.1,6.7L19,4.72C19,4.72 16.56,2 12.19,2C6.42,2 2.03,6.8 2.03,12C2.03,17.05 6.16,22 12.25,22C17.6,22 21.5,18.33 21.5,12.91C21.5,11.76 21.35,11.1 21.35,11.1Z" fill-opacity="0"/><path d="M3.25,15.62L6.47,13.2C7.02,14.81 8.48,16.34 10.5,16.34C11.63,16.34 12.8,15.83 12.8,14.7C12.8,13.24 11.03,12.68 9.3,12.07C7.08,11.29 5.34,10.58 5.34,8.7C5.34,7.04 6.83,5.78 8.85,5.78C10.5,5.78 11.8,6.62 12.31,7.85L9.15,10.1C8.8,9.52 8.31,9.17 7.68,9.17C7.02,9.17 6.5,9.66 6.5,10.32C6.5,11.22 7.58,11.53 8.96,12.07C11.43,12.97 13.95,13.78 13.95,16.08C13.95,18.16 12.18,19.4 10.02,19.4C7.5,19.4 5.38,17.9 4.24,15.62Z" fill="#FFC107"/><path d="M21.35,11.1H12.18V13.83H18.69C18.36,17.64 15.19,19.27 12.19,19.27C8.36,19.27 5,16.25 5,12C5,7.9 8.2,4.73 12.19,4.73C15.29,4.73 17.1,6.7 17.1,6.7L19,4.72C19,4.72 16.56,2 12.19,2C6.42,2 2.03,6.8 2.03,12C2.03,17.05 6.16,22 12.25,22C17.6,22 21.5,18.33 21.5,12.91C21.5,11.76 21.35,11.1 21.35,11.1Z" fill-opacity="0"/><path d="M12.18,11.1H21.35C21.35,11.1 21.5,11.76 21.5,12.91C21.5,18.33 17.6,22 12.25,22C6.16,22 2.03,17.05 2.03,12C2.03,6.8 6.42,2 12.19,2C16.56,2 19,4.72 19,4.72L17.1,6.7C17.1,6.7 15.29,4.73 12.19,4.73C8.2,4.73 5,7.9 5,12C5,16.25 8.36,19.27 12.19,19.27C15.19,19.27 18.36,17.64 18.69,13.83H12.18V11.1Z" fill-opacity="0"/><path d="M12.18,11.1H21.35C21.35,11.1 21.5,11.76 21.5,12.91C21.5,18.33 17.6,22 12.25,22C6.16,22 2.03,17.05 2.03,12C2.03,6.8 6.42,2 12.19,2C16.56,2 19,4.72 19,4.72L17.1,6.7C17.1,6.7 15.29,4.73 12.19,4.73C8.2,4.73 5,7.9 5,12C5,16.25 8.36,19.27 12.19,19.27C15.19,19.27 18.36,17.64 18.69,13.83H12.18V11.1Z" fill="#EA4335"/></svg>
