<?xml version="1.0" encoding="UTF-8"?>
<svg version="1.1" xmlns="http://www.w3.org/2000/svg" width="2788" height="846">
<path d="M0 0 C62.37 0 124.74 0 189 0 C206.15107013 44.59278233 206.15107013 44.59278233 213.44555664 63.8659668 C214.82152572 67.50148159 216.19866383 71.13655251 217.57617188 74.77148438 C217.81338455 75.39744444 218.05059723 76.0234045 218.29499817 76.66833305 C218.77494982 77.93483354 219.25490486 79.20133274 219.73486328 80.46783066 C220.44865871 82.35149497 221.16233251 84.23520533 221.87597656 86.118927 C226.40879211 98.08252793 230.95347654 110.04160332 235.5 122 C242.3415395 139.99689116 249.1731497 157.99753185 256 176 C264.82681618 199.27598685 273.66424827 222.54791635 282.50996399 245.81672668 C284.86626556 252.01557894 287.22094209 258.21504574 289.57427979 264.4150238 C291.17313275 268.62722054 292.77246783 272.83923415 294.37182617 277.05123901 C295.16029397 279.12808049 295.94854565 281.20500403 296.73657227 283.28201294 C301.19318367 295.0276718 305.67307549 306.76381212 310.1953125 318.484375 C311.04098877 320.67942235 311.88661136 322.87449039 312.73217773 325.06958008 C314.33812751 329.23825359 315.95058788 333.40432991 317.56665039 337.5690918 C318.28816811 339.44049803 319.00945412 341.31199363 319.73046875 343.18359375 C320.06382233 344.03729553 320.3971759 344.89099731 320.7406311 345.77056885 C321.19035782 346.942659 321.19035782 346.942659 321.64916992 348.13842773 C321.9116301 348.81590561 322.17409027 349.49338348 322.44450378 350.19139099 C323 352 323 352 323 355 C323.66 355 324.32 355 325 355 C325.09031494 354.21665283 325.18062988 353.43330566 325.27368164 352.6262207 C326.22768654 347.86325101 327.89742571 343.51303635 329.62109375 338.98046875 C329.99227829 337.99071045 330.36346283 337.00095215 330.74589539 335.98120117 C331.55003893 333.83850656 332.35661365 331.69672312 333.16534424 329.55575562 C335.3464589 323.7808718 337.50953892 317.99922511 339.67578125 312.21875 C340.12141418 311.03121628 340.56704712 309.84368256 341.02618408 308.62016296 C345.44782596 296.82950186 349.79337175 285.01146504 354.125 273.1875 C355.62069816 269.10792779 357.11691207 265.02854487 358.61328125 260.94921875 C358.9798584 259.94972702 359.34643555 258.95023529 359.72412109 257.92045593 C363.56933573 247.4404686 367.4394015 236.96970777 371.3125 226.5 C377.72223777 209.1717757 384.11531307 191.83746999 390.5 174.5 C397.16221985 156.40942401 403.83315393 138.32212547 410.52047729 120.24081421 C414.74190589 108.82631581 418.95599806 97.4091531 423.16015625 85.98828125 C423.60793427 84.77204071 424.05571228 83.55580017 424.51705933 82.30270386 C426.67643195 76.43719456 428.83504241 70.571407 430.9921875 64.70507812 C438.93861859 43.1153726 446.97693646 21.56198327 455 0 C517.04 0 579.08 0 643 0 C643 37.62 643 75.24 643 114 C637.70461689 115.7651277 632.52191845 117.43842237 627.16625977 118.93823242 C601.12218093 126.34067698 576.53510609 138.6216884 555 155 C554.05511719 155.70125 553.11023438 156.4025 552.13671875 157.125 C533.85673367 171.32735563 518.85012253 189.0793331 506.8125 208.75 C506.37373535 209.4620459 505.9349707 210.1740918 505.48291016 210.90771484 C496.11011823 226.76383895 489.34934141 243.61920037 483.734375 261.1015625 C483.08839884 263.0764392 482.44116907 265.05090623 481.79278564 267.0249939 C480.10238853 272.18279308 478.42876116 277.34587437 476.75897217 282.51037598 C475.10342521 287.62092955 473.431909 292.72624869 471.76171875 297.83203125 C468.46517845 307.91852646 465.18633488 318.01069863 461.91259766 328.10461426 C458.85969814 337.51717173 455.797388 346.92666721 452.734375 356.3359375 C452.44541603 357.22375538 452.15645706 358.11157326 451.85874176 359.02629471 C446.57459866 375.25979134 441.2537528 391.48105939 435.91616821 407.697052 C433.43555432 415.23355928 430.95772287 422.77098154 428.48046875 430.30859375 C428.11626107 431.41675351 428.11626107 431.41675351 427.74469566 432.54730034 C423.746989 444.71247812 419.77179212 456.88474827 415.8125 469.0625 C406.92087566 496.38996931 397.95322886 523.69265199 389 551 C344.78 551 300.56 551 255 551 C228.42726026 470.32297058 228.42726026 470.32297058 221.6875 449.5625 C216.07659239 432.2801725 210.41823551 415.01358895 204.75 397.75 C204.29496077 396.36405495 203.83992334 394.97810931 203.3848877 393.59216309 C203.15969389 392.90626917 202.93450008 392.22037525 202.70248222 391.51369667 C201.56854491 388.05992451 200.43464635 384.60613962 199.30078125 381.15234375 C199.07642773 380.46897068 198.8520742 379.78559761 198.62092209 379.08151627 C194.05108302 365.16135596 189.49256113 351.23750296 184.9375 337.3125 C178.50388251 317.64563664 172.06279428 297.98123479 165.61580276 278.31875229 C164.94110055 276.26098129 164.2664305 274.20319974 163.59176636 272.14541626 C162.34124765 268.33127911 161.09056747 264.51719493 159.83984375 260.703125 C159.46472656 259.559077 159.08960938 258.41502899 158.703125 257.23631287 C158.36015381 256.19056595 158.01718262 255.14481903 157.66381836 254.06738281 C157.36503281 253.15627747 157.06624725 252.24517212 156.75840759 251.30645752 C156.17634384 249.53629416 155.58926026 247.76778077 155 246 C154.67 346.65 154.34 447.3 154 551 C103.18 551 52.36 551 0 551 C0 369.17 0 187.34 0 0 Z " fill="#4C3DEF" transform="translate(0,27)"/>
<path d="M0 0 C51.15 0 102.3 0 155 0 C155 190.74 155 381.48 155 578 C103.85 578 52.7 578 0 578 C-0.33 556.55 -0.66 535.1 -1 513 C-2.98 516.63 -4.96 520.26 -7 524 C-26.59793082 553.62642155 -56.63820588 573.17299138 -91.31689453 580.48876953 C-138.65561899 589.63296573 -187.95590818 581.82745341 -228.1875 554.6640625 C-236.70534444 548.77771322 -244.4275077 542.04679862 -252 535 C-252.66644531 534.38769531 -253.33289062 533.77539062 -254.01953125 533.14453125 C-291.73242853 497.12141755 -310.10732019 440.8115731 -314 390 C-314.08540039 388.91162842 -314.17080078 387.82325684 -314.25878906 386.7019043 C-314.9320098 377.48734628 -315.24209861 368.30082816 -315.25 359.0625 C-315.25067474 358.33821808 -315.25134949 357.61393616 -315.25204468 356.8677063 C-315.19627013 318.53182393 -309.19164125 280.3779001 -294 245 C-293.67161133 244.23478027 -293.34322266 243.46956055 -293.00488281 242.68115234 C-284.65227941 223.53679498 -273.58801474 206.81159264 -260 191 C-259.23558594 190.09378906 -258.47117187 189.18757812 -257.68359375 188.25390625 C-253.47266493 183.36725108 -248.99463342 179.07608015 -244 175 C-243.50226074 174.58991699 -243.00452148 174.17983398 -242.49169922 173.75732422 C-204.0136716 142.19465007 -157.89157178 130.55501918 -108.76074219 134.24316406 C-103.10025238 134.8283324 -97.55292239 135.76381842 -92 137 C-91.00395752 137.2168042 -91.00395752 137.2168042 -89.98779297 137.43798828 C-55.1290576 145.27794794 -25.64965982 164.83048903 -6.24169922 194.95874023 C-4.43126564 197.93495635 -2.7283541 200.97538032 -1 204 C-0.67 136.68 -0.34 69.36 0 0 Z M-137 293 C-154.9005357 313.42836176 -160.28290663 340.32999364 -158.8125 366.9375 C-157.02913323 390.74488209 -149.5662414 414.53569469 -130.98828125 430.70703125 C-111.95129788 446.41981967 -90.01111477 449.82174853 -66 448 C-47.1454268 445.67128973 -30.2581065 435.07603332 -18.05859375 420.75 C-0.16143928 396.84184678 3.52282319 366.41491512 -0.58154297 337.49853516 C-3.29963343 321.26928325 -9.90280779 306.23802505 -21 294 C-21.69996094 293.21882813 -22.39992188 292.43765625 -23.12109375 291.6328125 C-36.30468033 277.67372083 -54.75880659 269.80624828 -73.83984375 268.796875 C-98.02879626 268.33487189 -119.8415565 275.22974814 -137 293 Z " fill="#4C3DEF" transform="translate(1836,0)"/>
<path d="M0 0 C56.76 0 113.52 0 172 0 C181.17778606 22.94446516 181.17778606 22.94446516 184.3046875 31.23828125 C184.66578613 32.1910495 185.02688477 33.14381775 185.39892578 34.12545776 C186.16415417 36.14490348 186.92861393 38.16464062 187.69232178 40.18466187 C189.76993924 45.67935265 191.85406074 51.17157713 193.9375 56.6640625 C194.36231659 57.78437363 194.78713318 58.90468475 195.224823 60.0589447 C199.41750129 71.11102794 203.64268695 82.15054591 207.875 93.1875 C209.36604373 97.07676224 210.85691408 100.96609091 212.34765625 104.85546875 C212.7231813 105.83520157 213.09870636 106.81493439 213.48561096 107.82435608 C218.10489704 119.87896001 222.70877422 131.93944688 227.3125 144 C227.96191559 145.70121506 227.96191559 145.70121506 228.62445068 147.4367981 C230.83524949 153.22830967 233.04586501 159.01989118 235.25634766 164.81152344 C239.54219022 176.04074301 243.82867946 187.26971565 248.11557007 198.49853516 C249.46431389 202.03152151 250.81285354 205.56458576 252.16137695 209.09765625 C252.58046829 210.19527283 252.99955963 211.2928894 253.43135071 212.42376709 C254.23313769 214.52432412 255.03433866 216.62510495 255.83488464 218.72613525 C257.43876122 222.93227383 259.04656209 227.13599667 260.69921875 231.32324219 C261.38951172 233.07749512 261.38951172 233.07749512 262.09375 234.8671875 C262.47208984 235.8144873 262.85042969 236.76178711 263.24023438 237.73779297 C264 240 264 240 264 243 C264.66 243 265.32 243 266 243 C266.09321533 242.2155249 266.18643066 241.4310498 266.2824707 240.62280273 C267.21817255 235.89844764 268.82412957 231.54965957 270.48046875 227.03515625 C270.84062576 226.03951157 271.20078278 225.04386688 271.57185364 224.01805115 C272.35794203 221.84543715 273.14617444 219.67359798 273.9362793 217.50244141 C276.10928956 211.52825319 278.26401527 205.54748699 280.41796875 199.56640625 C280.64450008 198.93775791 280.87103142 198.30910957 281.10442734 197.66141129 C286.27426048 183.30833352 291.29688285 168.90487083 296.30630875 154.49518967 C303.63992117 133.4023077 311.06699996 112.34695403 318.63961792 91.33837891 C326.32554413 70.00544095 333.81172731 48.60459139 341.25788975 27.1870575 C341.95377766 25.18563952 342.65005534 23.18435751 343.34642029 21.18310547 C344.20014116 18.72874596 345.0527914 16.27401369 345.90419006 13.81884766 C346.28393478 12.72685059 346.6636795 11.63485352 347.05493164 10.50976562 C347.38401016 9.56153931 347.71308868 8.61331299 348.05213928 7.63635254 C348.97528739 5.06873494 349.98665031 2.53337422 351 0 C407.43 0 463.86 0 522 0 C521.27244068 4.3653559 520.73697905 7.06869652 519.06420898 10.93310547 C518.45832191 12.34642654 518.45832191 12.34642654 517.8401947 13.78829956 C517.17486473 15.31234909 517.17486473 15.31234909 516.49609375 16.8671875 C515.79759056 18.48924606 515.79759056 18.48924606 515.0849762 20.14407349 C513.80918306 23.10367241 512.52759402 26.06067978 511.24359131 29.01672363 C509.88064734 32.15870833 508.52554035 35.30406821 507.16992188 38.44921875 C505.19212723 43.03633226 503.21225471 47.62253723 501.22963905 52.20756912 C496.28496811 63.64356921 491.37949572 75.09628871 486.47683716 86.550354 C483.98636709 92.36767792 481.49302722 98.18377162 479 104 C477.9999865 106.33332755 476.99998649 108.66666088 476 111 C437 202 437 202 398 293 C397.50500504 294.15498993 397.01001007 295.30997986 396.50001526 296.49996948 C395.49996931 298.83340665 394.49991844 301.1668417 393.49986267 303.50027466 C391.00052547 309.33200215 388.50127348 315.16376613 386.00219727 320.99560547 C381.4943792 331.5148112 376.98594693 342.03375145 372.47433472 352.55133057 C362.12050219 376.68857313 351.78384827 400.83284671 341.5 425 C330.71636985 450.34164603 319.87318036 475.65751703 309.01611328 500.96777344 C304.50676072 511.48065872 300.00138209 521.9952471 295.49569702 532.50970459 C293.01291759 538.30341383 290.52988379 544.09701405 288.046875 549.890625 C287.04882689 552.21940051 286.05078003 554.54817656 285.05273438 556.87695312 C282.97070312 561.73502604 280.88867188 566.59309896 278.80664062 571.45117188 C278.54062798 572.07186806 278.27461533 572.69256424 278.00054169 573.3320694 C277.19306946 575.21617126 276.38559723 577.10027313 275.578125 578.984375 C275.31172714 579.60597 275.04532928 580.227565 274.77085876 580.86799622 C272.01042938 587.30899811 272.01042938 587.30899811 269.25 593.75 C268.76756836 594.87567383 268.28513672 596.00134766 267.78808594 597.16113281 C267.31918945 598.25522461 266.85029297 599.34931641 266.3671875 600.4765625 C265.90380981 601.55788452 265.44043213 602.63920654 264.9630127 603.7532959 C264.04820725 605.8876269 263.13309267 608.02182543 262.21765137 610.15588379 C259.97787095 615.37830746 257.74203254 620.60235265 255.51590347 625.83060837 C254.40206648 628.4459328 253.28644936 631.06049611 252.17067719 633.67499542 C251.63273524 634.93688433 251.09566177 636.19914384 250.55948639 637.46178436 C249.81753758 639.20884188 249.07242207 640.95455354 248.32714844 642.70019531 C247.90125427 643.70093079 247.47536011 644.70166626 247.03656006 645.73272705 C246 648 246 648 245 649 C242.82307389 649.09696917 240.64293607 649.12186746 238.46385193 649.12025452 C237.77287715 649.12110894 237.08190238 649.12196337 236.36998898 649.12284368 C234.0375678 649.12450047 231.70521737 649.1189739 229.37280273 649.11352539 C227.70765179 649.11324354 226.04250072 649.11340122 224.37734985 649.1139679 C219.84241894 649.11425594 215.30751424 649.10835816 210.77258945 649.10139394 C206.03866631 649.09516148 201.30474264 649.09455669 196.57081604 649.09336853 C187.599979 649.09025489 178.62915408 649.08204108 169.65832239 649.07201904 C159.44809608 649.0608589 149.2378692 649.0553477 139.02763832 649.05032361 C118.01841877 649.03985849 97.00921015 649.02225843 76 649 C76.77770867 644.69121887 78.21167357 641.05464802 80.10546875 637.12890625 C80.57856476 636.13069603 80.57856476 636.13069603 81.06121826 635.11231995 C82.09832478 632.92663674 83.14298544 630.7446513 84.1875 628.5625 C84.91869129 627.02423038 85.64923267 625.48565168 86.37915039 623.94677734 C87.49812903 621.58781204 88.6174875 619.22903648 89.73887634 616.87121582 C93.17737697 609.64044372 96.56211107 602.38539153 99.9375 595.125 C105.46678831 583.24671488 111.05747719 571.39797331 116.66036987 559.55426025 C121.31155615 549.72010098 125.93198499 539.87313171 130.5 530 C135.42737446 519.3501626 140.41965558 508.73243388 145.4375 498.125 C151.30564314 485.71859232 157.16719883 473.30930776 162.93945312 460.85791016 C165.53851098 455.25568188 168.15164649 449.6637636 170.83840942 444.10314941 C172.08313706 441.52367931 173.31633866 438.93878144 174.54846191 436.35327148 C175.41420812 434.54855381 176.29624749 432.75168066 177.17871094 430.95507812 C177.69594727 429.86646484 178.21318359 428.77785156 178.74609375 427.65625 C179.43723267 426.23022461 179.43723267 426.23022461 180.14233398 424.77539062 C181.89181692 419.1140977 179.51564062 414.4195152 177.25390625 409.19921875 C176.97182312 408.54344849 176.68973999 407.88767822 176.39910889 407.21203613 C175.46014269 405.03428391 174.51144708 402.86091962 173.5625 400.6875 C172.88714792 399.1275617 172.21227284 397.56741681 171.5378418 396.00708008 C169.36988272 390.99975908 167.18701277 385.99902411 165 381 C164.64365479 380.18547363 164.28730957 379.37094727 163.92016602 378.53173828 C160.63764798 371.03247587 157.34688783 363.53684429 154.04931641 356.04418945 C148.31041141 343.00290794 142.61376243 329.94366129 136.9375 316.875 C136.30835693 315.42664764 136.30835693 315.42664764 135.66650391 313.94903564 C133.98961103 310.08861451 132.312747 306.22818085 130.63604736 302.36767578 C126.53613019 292.92915775 122.42569462 283.49523803 118.3125 274.0625 C117.96710175 273.27035095 117.62170349 272.4782019 117.26583862 271.66204834 C115.53624378 267.6953773 113.80649849 263.72877189 112.07666016 259.76220703 C108.90534241 252.49006349 105.73550246 245.21727577 102.56552124 237.94454956 C100.79373853 233.87967456 99.02186475 229.81483924 97.25 225.75 C96.54166623 224.12500019 95.83333289 222.50000019 95.125 220.875 C94.774375 220.070625 94.42375 219.26625 94.0625 218.4375 C73.87500001 172.12500002 73.87500001 172.12500002 72.81245422 169.68739319 C72.10427523 168.06274846 71.39609449 166.4381045 70.68791199 164.8134613 C68.91470284 160.74553188 67.14152436 156.6775891 65.3684082 152.60961914 C62.20929376 145.3619036 59.04999147 138.11427036 55.88949585 130.86715698 C47.07146479 110.64707838 38.26679255 90.4212418 29.47509766 70.18969727 C25.36630469 60.73555356 21.25323826 51.28331401 17.12890625 41.8359375 C16.54573135 40.49973358 16.54573135 40.49973358 15.95077515 39.13653564 C14.12402964 34.95115421 12.29633801 30.76619139 10.46679688 26.58203125 C7.62587844 20.07964858 4.79575587 13.57270904 2.02734375 7.0390625 C1.631521 6.10529785 1.23569824 5.1715332 0.82788086 4.20947266 C0 2 0 2 0 0 Z " fill="#4C3DEF" transform="translate(2266,139)"/>
<path d="M0 0 C1.3573526 -0.00101212 1.3573526 -0.00101212 2.74212646 -0.00204468 C65.24837611 0.0716639 123.83244894 19.70091435 169.4375 63.25 C170.41976562 64.15298828 170.41976562 64.15298828 171.421875 65.07421875 C176.93704208 70.28736478 181.47293161 76.39318317 186.04980469 82.42236328 C186.9333909 83.58607305 187.8215807 84.74631207 188.71582031 85.90185547 C226.32723685 134.671226 236.26915807 201.00548702 228.84570312 260.88623047 C222.11403116 309.72077072 202.42059286 351.64162879 168.4375 387.25 C167.53644531 388.23033203 167.53644531 388.23033203 166.6171875 389.23046875 C161.40226304 394.74675819 155.29595601 399.28418727 149.26513672 403.86230469 C148.10142695 404.7458909 146.94118793 405.6340807 145.78564453 406.52832031 C95.21211941 445.53111855 26.4550612 455.59198047 -35.5625 448.25 C-49.80452069 446.3380575 -63.80784266 443.4095236 -77.5625 439.25 C-78.34093262 439.01474609 -79.11936523 438.77949219 -79.92138672 438.53710938 C-132.98656824 422.08245296 -177.70389607 386.01838176 -203.79736328 336.92675781 C-214.53646619 316.19231441 -221.59726354 294.24222383 -225.5625 271.25 C-225.72621094 270.30125 -225.88992188 269.3525 -226.05859375 268.375 C-230.81055776 239.1563122 -230.59361564 207.40670166 -225.5625 178.25 C-225.39621094 177.28578125 -225.22992187 176.3215625 -225.05859375 175.328125 C-219.49047199 144.47660591 -207.88013465 114.78966558 -189.5625 89.25 C-189.14258789 88.66331543 -188.72267578 88.07663086 -188.29003906 87.47216797 C-182.29116449 79.19503229 -175.60414403 71.63862359 -168.5625 64.25 C-167.79679688 63.41984375 -167.03109375 62.5896875 -166.2421875 61.734375 C-124.21731842 17.57264817 -59.11370513 0.03974959 0 0 Z M-48.5625 154.25 C-49.18640625 154.79011719 -49.8103125 155.33023438 -50.453125 155.88671875 C-66.16615793 169.93643513 -71.04202548 194.26824163 -72.5625 214.25 C-74.03212319 242.56587936 -70.00307866 272.36981932 -50.5625 294.25 C-50.00820313 294.88679687 -49.45390625 295.52359375 -48.8828125 296.1796875 C-37.35064067 308.59470502 -20.10205078 315.61571356 -3.3828125 316.53515625 C16.88633206 317.18647542 34.68169207 310.8653951 49.6015625 297.09375 C63.88875459 283.15780449 70.93192722 263.68796992 73.4375 244.25 C73.54964844 243.39277344 73.66179687 242.53554688 73.77734375 241.65234375 C76.79503478 214.24509508 73.66676696 182.73096866 56.4375 160.25 C45.19514332 146.89642158 30.89649769 137.32790707 13.4375 134.25 C-10.88969256 132.54986364 -30.70012087 136.67265884 -48.5625 154.25 Z " fill="#4C3DEF" transform="translate(747.5625,133.75)"/>
<path d="M0 0 C1.3573526 -0.00101212 1.3573526 -0.00101212 2.74212646 -0.00204468 C65.24837611 0.0716639 123.83244894 19.70091435 169.4375 63.25 C170.41976562 64.15298828 170.41976562 64.15298828 171.421875 65.07421875 C176.93704208 70.28736478 181.47293161 76.39318317 186.04980469 82.42236328 C186.9333909 83.58607305 187.8215807 84.74631207 188.71582031 85.90185547 C226.40396866 134.77072138 236.18967207 201.15322269 228.7800293 261.10961914 C222.17432568 309.68447978 202.25324057 351.83780816 168.4375 387.25 C167.53451172 388.23226562 167.53451172 388.23226562 166.61328125 389.234375 C161.40013522 394.74954208 155.29431683 399.28543161 149.26513672 403.86230469 C148.10142695 404.7458909 146.94118793 405.6340807 145.78564453 406.52832031 C95.32027029 445.44771153 26.3596978 455.7655013 -35.5625 448.25 C-92.63385948 440.60395886 -147.79220311 414.47805811 -183.5625 368.25 C-205.4048462 339.45702653 -219.41370245 306.90349276 -225.5625 271.25 C-225.72621094 270.30125 -225.88992188 269.3525 -226.05859375 268.375 C-230.81055776 239.1563122 -230.59361564 207.40670166 -225.5625 178.25 C-225.39621094 177.28578125 -225.22992187 176.3215625 -225.05859375 175.328125 C-218.84201211 140.88365782 -205.31530508 108.72763797 -183.5625 81.25 C-183.12470215 80.69650879 -182.6869043 80.14301758 -182.23583984 79.57275391 C-144.24353462 32.0929297 -88.0625764 8.01981598 -28.69360352 0.90625 C-19.15704957 -0.02536277 -9.57320389 0.00643727 0 0 Z M0.1875 65.5 C-0.57973389 65.77158936 -1.34696777 66.04317871 -2.13745117 66.32299805 C-19.83507471 72.84204804 -35.40335762 82.15965941 -49.875 94.1875 C-50.44532959 94.66050537 -51.01565918 95.13351074 -51.60327148 95.62084961 C-52.96421466 96.78402181 -54.26935968 98.01188692 -55.5625 99.25 C-55.5625 99.91 -55.5625 100.57 -55.5625 101.25 C-54.46035156 101.40855469 -53.35820313 101.56710938 -52.22265625 101.73046875 C-28.24213094 105.33995265 -5.85693871 113.12255394 13.4375 128.25 C13.98341797 128.67394043 14.52933594 129.09788086 15.09179688 129.53466797 C22.93424847 135.68151505 29.46596592 142.21728552 35.4375 150.25 C36.03949219 151.02601563 36.64148437 151.80203125 37.26171875 152.6015625 C51.7820871 172.11432717 59.83127342 196.92231857 58.4375 221.25 C58.40076172 221.89582031 58.36402344 222.54164063 58.32617188 223.20703125 C58.07189132 227.5580541 57.76996809 231.90416706 57.4375 236.25 C61.07239682 233.0351357 63.19810445 229.42624866 65.3125 225.125 C65.65692139 224.42632812 66.00134277 223.72765625 66.35620117 223.0078125 C80.86773321 192.67376917 82.80785643 158.65634222 72.05908203 126.81835938 C67.31127365 113.50853688 60.71649445 101.96608537 51.4375 91.25 C50.77363281 90.43015625 50.10976562 89.6103125 49.42578125 88.765625 C38.54528059 75.81360573 17.83426703 58.96039777 0.1875 65.5 Z M81.4375 112.25 C81.83185985 113.58376989 82.22815933 114.91696613 82.625 116.25 C82.89699219 117.17039062 83.16898438 118.09078125 83.44921875 119.0390625 C84.14376436 121.29564943 84.87935367 123.53981232 85.64453125 125.7734375 C97.04817964 159.31562338 94.22954897 194.6622523 79.01708984 226.4453125 C75.55026992 233.38179983 71.47026671 239.32702412 66.4375 245.25 C65.75300781 246.095625 65.06851563 246.94125 64.36328125 247.8125 C53.1639639 261.06123032 38.36694828 270.64461563 22.4375 277.25 C22.7675 277.91 23.0975 278.57 23.4375 279.25 C55.7529063 280.67335395 87.18214665 268.47810586 111.4375 247.25 C131.10772913 229.17012982 146.86147868 204.21667445 148.58544922 176.90625 C149.66831388 161.41160289 149.66831388 161.41160289 144.3125 147.5625 C143.36375 146.799375 142.415 146.03625 141.4375 145.25 C140.89351562 144.74339844 140.34953125 144.23679687 139.7890625 143.71484375 C124.71003842 129.74924972 102.22675228 114.6039993 81.4375 112.25 Z M-133.5625 137.25 C-144.71708266 157.86632894 -140.19399277 190.32431615 -135.5625 212.25 C-134.5725 212.25 -133.5825 212.25 -132.5625 212.25 C-130.71332151 210.12299663 -129.0417289 208.01268471 -127.375 205.75 C-108.7174957 181.36180243 -79.50199877 164.45459385 -49.06738281 159.87451172 C-19.37189953 155.94276337 6.1094898 161.47619483 31.4375 177.25 C32.26765625 177.76175781 33.0978125 178.27351563 33.953125 178.80078125 C35.78807123 179.93960277 37.61407251 181.09282486 39.4375 182.25 C33.39464381 162.5176402 14.33506474 145.06250197 -2.5625 134.25 C-3.55378906 133.61320312 -4.54507812 132.97640625 -5.56640625 132.3203125 C-41.54113414 110.4891317 -102.10261951 101.98212653 -133.5625 137.25 Z M-41.6875 172.5 C-42.5122583 172.63567383 -43.3370166 172.77134766 -44.18676758 172.91113281 C-67.8853336 176.96655135 -89.34826362 186.42060635 -107.5625 202.25 C-108.44292969 202.98605469 -109.32335938 203.72210938 -110.23046875 204.48046875 C-127.532225 219.43953304 -138.47751613 238.35950498 -144.5625 260.25 C-144.82933594 261.1884375 -145.09617187 262.126875 -145.37109375 263.09375 C-146.78761149 269.26781352 -146.78871166 275.56775891 -146.875 281.875 C-146.89288574 282.75841064 -146.91077148 283.64182129 -146.92919922 284.55200195 C-146.91790264 293.18500805 -145.12999853 300.63169103 -139.08203125 307.0234375 C-128.97145711 315.95836348 -117.26069703 322.99368491 -105.37451172 329.2890625 C-103.68015497 330.18760577 -101.99777063 331.10862406 -100.31640625 332.03125 C-93.58490677 335.60270876 -87.02732039 337.74115333 -79.5625 339.25 C-81.1266007 333.13347614 -82.92677213 327.1926144 -85.0625 321.25 C-95.74086733 290.01477572 -91.95832504 254.94360201 -77.84350586 225.47119141 C-65.2389602 200.3660075 -44.44998733 184.95791125 -19.5625 173.25 C-26.29176632 169.42900126 -34.36199475 171.28684927 -41.6875 172.5 Z M-53.5625 214.25 C-71.80298153 239.37010952 -76.66967446 272.92826897 -71.96923828 302.96875 C-66.72687522 332.3712953 -52.38603408 357.98922782 -28.21875 375.796875 C-20.1096368 381.43990507 -10.66555347 386.50153715 -0.5625 386.25 C2.60849629 385.60383211 5.50567828 384.52636331 8.5 383.3125 C9.32072998 382.9925708 10.14145996 382.6726416 10.98706055 382.34301758 C30.33740221 374.63613727 45.82009156 363.89577548 61.4375 350.25 C58.38440321 348.21460214 56.77738184 347.78395756 53.23828125 347.171875 C51.68343018 346.88993286 51.68343018 346.88993286 50.09716797 346.60229492 C48.99260254 346.4035376 47.88803711 346.20478027 46.75 346 C14.3897625 339.81165237 -14.162666 322.66632161 -33.625 295.6875 C-44.33256337 278.98535483 -52.81055877 259.57753392 -52.66015625 239.4453125 C-52.6587413 238.7213327 -52.65732635 237.99735291 -52.65586853 237.25143433 C-52.65031075 234.95924593 -52.63776633 232.66715843 -52.625 230.375 C-52.61997953 228.81250142 -52.61541759 227.25000129 -52.61132812 225.6875 C-52.60035519 221.87496165 -52.5831201 218.06249788 -52.5625 214.25 C-52.8925 214.25 -53.2225 214.25 -53.5625 214.25 Z M139.4375 236.25 C137.71640044 238.20703237 136.03910181 240.18285066 134.375 242.1875 C133.35577721 243.39479172 132.33624509 244.60182238 131.31640625 245.80859375 C129.69130143 247.74034194 128.09561414 249.68137745 126.52734375 251.66015625 C108.50745825 273.62060896 77.68579809 287.77117817 49.77880859 291.0390625 C20.74437349 293.65488648 -9.38311376 287.47894014 -32.19140625 268.46484375 C-32.87009766 267.86349609 -32.87009766 267.86349609 -33.5625 267.25 C-33.8925 267.91 -34.2225 268.57 -34.5625 269.25 C-31.21786312 277.91134738 -25.11251011 284.81272311 -19.00927734 291.62695312 C-17.60788777 293.19908237 -16.2339769 294.79173084 -14.86328125 296.390625 C6.73399641 321.22393822 38.05253201 333.83219482 70.4375 336.25 C93.51096749 337.82853417 117.90738036 330.85223965 135.70703125 315.9296875 C139.96251526 311.75334696 141.38713996 308.04508988 142.4375 302.25 C142.65535156 301.074375 142.87320313 299.89875 143.09765625 298.6875 C146.27665409 278.62337451 146.34612034 255.78816893 140.4375 236.25 C140.1075 236.25 139.7775 236.25 139.4375 236.25 Z " fill="#4C3DEF" transform="translate(1252.5625,133.75)"/>
<path d="M0 0 C51.15 0 102.3 0 155 0 C155 190.74 155 381.48 155 578 C103.85 578 52.7 578 0 578 C0 387.26 0 196.52 0 0 Z " fill="#4C3DEF" transform="translate(2074,0)"/>
<path d="M0 0 C10.89 0 21.78 0 33 0 C42.33874836 21.58827542 51.35332497 43.29926773 60.30935669 65.04858398 C63.14974499 71.94394523 66.00077667 78.83482536 68.859375 85.72265625 C69.44245171 87.12761604 69.44245171 87.12761604 70.03730774 88.56095886 C71.53066061 92.1585092 73.02439763 95.75589922 74.51913452 99.35287476 C81.76778742 116.79704607 81.76778742 116.79704607 85 125 C87.15573724 122.30629324 88.64495897 119.81331482 89.90673828 116.60668945 C90.2527005 115.73673843 90.59866272 114.86678741 90.95510864 113.97047424 C91.32312592 113.02760056 91.69114319 112.08472687 92.0703125 111.11328125 C92.46386932 110.12033554 92.85742615 109.12738983 93.26290894 108.10435486 C94.11185614 105.96146906 94.95820808 103.81755366 95.80224609 101.67272949 C98.04487316 95.97571995 100.30760677 90.28671485 102.5703125 84.59765625 C103.25652679 82.87094193 103.25652679 82.87094193 103.956604 81.10934448 C108.20252649 70.44671492 112.57824551 59.84069048 117 49.25 C123.82415853 32.89272946 130.46021408 16.47363795 137 0 C147.89 0 158.78 0 170 0 C170 53.46 170 106.92 170 162 C161.09 162 152.18 162 143 162 C142.67 124.05 142.34 86.1 142 47 C128.66555892 81.66629164 128.66555892 81.66629164 115.33984375 116.3359375 C112.56835937 123.5390625 112.56835937 123.5390625 111.2565918 126.94628906 C110.34567383 129.31403513 109.43591566 131.6822276 108.52709961 134.05078125 C107.15497838 137.62608319 105.77907303 141.19990789 104.40234375 144.7734375 C103.99934555 145.82614838 103.59634735 146.87885925 103.18113708 147.96347046 C102.80546097 148.93636017 102.42978485 149.90924988 102.04272461 150.91162109 C101.7188829 151.75405365 101.3950412 152.59648621 101.06138611 153.46444702 C99.8447321 156.37092062 98.40910154 159.18179692 97 162 C89.08 162 81.16 162 73 162 C65.72178816 143.98344283 58.66400234 125.8873666 51.65698242 107.76391602 C43.81602415 87.49145658 35.90214794 67.2492541 28 47 C27.67 84.95 27.34 122.9 27 162 C18.09 162 9.18 162 0 162 C0 108.54 0 55.08 0 0 Z " fill="#4C3DEF" transform="translate(1606,624)"/>
<path d="M0 0 C13.9392699 11.40709212 20.30695875 27.29820376 22.375 44.8125 C23.60011049 66.05643722 20.60534672 86.41382488 6.4140625 103.12109375 C-5.20194423 115.55483381 -19.05341261 120.23950636 -35.69921875 120.80859375 C-49.13024162 120.82195795 -60.64101623 116.6550422 -71.17578125 108.36328125 C-74.80274302 104.58591915 -77.62193391 100.10259442 -80.625 95.8125 C-80.955 123.2025 -81.285 150.5925 -81.625 178.8125 C-90.865 178.8125 -100.105 178.8125 -109.625 178.8125 C-109.625 116.7725 -109.625 54.7325 -109.625 -9.1875 C-100.385 -9.1875 -91.145 -9.1875 -81.625 -9.1875 C-81.295 -1.5975 -80.965 5.9925 -80.625 13.8125 C-79.635 12.306875 -78.645 10.80125 -77.625 9.25 C-69.92489862 -1.67519395 -59.97890998 -7.75826798 -46.95703125 -10.68359375 C-30.0494041 -13.24055026 -13.9210373 -10.09631545 0 0 Z M-72.875 26.1875 C-79.56351789 34.43909545 -82.01075883 43.62700966 -81.9375 54.125 C-81.93186035 54.96732178 -81.9262207 55.80964355 -81.92041016 56.67749023 C-81.70441363 67.73929229 -78.52274678 77.2064454 -71.03125 85.59765625 C-61.89329072 94.02440643 -51.77645545 96.29889322 -39.75390625 96.09765625 C-29.63789696 95.63583339 -21.38586054 90.87659109 -14.5 83.6875 C-5.61571527 73.39328098 -4.91217271 61.11275407 -5.44580078 48.07470703 C-6.23815221 38.07207988 -10.46386857 28.71509609 -17.73046875 21.8125 C-26.04673576 14.94191796 -35.04266124 12.38943658 -45.77734375 12.53515625 C-56.89850237 13.61828692 -65.42375267 18.07063256 -72.875 26.1875 Z " fill="#4B3CED" transform="translate(445.625,667.1875)"/>
<path d="M0 0 C9.24 0 18.48 0 28 0 C28 56.76 28 113.52 28 172 C18.76 172 9.52 172 0 172 C-0.33 164.41 -0.66 156.82 -1 149 C-2.093125 150.65 -3.18625 152.3 -4.3125 154 C-12.16345916 164.75872181 -22.73501272 170.65100465 -35.625 173.3125 C-53.71915899 175.89074345 -69.30744114 171.1847912 -84.125 160.8125 C-96.23650004 150.0734079 -102.1917867 133.69270831 -104 118 C-105.22534306 95.78234568 -102.04720529 76.75221251 -88 59 C-78.08298894 48.02684516 -64.60978399 42.75410113 -50.04296875 41.71875 C-33.69623787 41.15877008 -20.52774351 45.51320787 -8.32421875 56.42578125 C-6 59 -6 59 -1 67 C-0.67 44.89 -0.34 22.78 0 0 Z M-67 78 C-75.4008148 89.04332462 -77.03854873 101.42674511 -76 115 C-74.40912277 126.09636866 -69.92484971 135.39201291 -61.15234375 142.53125 C-51.57699479 149.06542642 -41.28457425 149.99259891 -30 149 C-19.74728563 146.90915162 -11.93747552 141.29677336 -6.125 132.6875 C0.6757597 120.99524261 2.04041449 107.90235055 -0.69140625 94.64453125 C-4.15232912 84.37760942 -10.69706611 74.66819122 -20.55859375 69.71484375 C-36.47198281 63.1177627 -54.90813897 64.82952226 -67 78 Z " fill="#4C3DEF" transform="translate(2201,614)"/>
<path d="M0 0 C10.91503978 10.2317822 18.38869943 21.17913798 22.8125 35.625 C22.8125 36.945 22.8125 38.265 22.8125 39.625 C13.2425 39.625 3.6725 39.625 -6.1875 39.625 C-7.156875 37.665625 -8.12625 35.70625 -9.125 33.6875 C-15.77631232 21.1066135 -25.44529057 14.77371537 -38.453125 9.75 C-51.89462564 5.93981084 -66.68579279 8.21450879 -78.875 14.375 C-91.8497692 21.83092371 -98.01416003 34.24886319 -102.2734375 48.17578125 C-106.44420756 65.46507807 -103.87379801 85.97123469 -94.8046875 101.19921875 C-87.23979296 112.54656056 -77.04782304 119.06326267 -63.8359375 122.1796875 C-48.0992486 124.82567944 -33.68220233 120.9456948 -20.78515625 111.94921875 C-13.77146268 106.35025311 -10.32832953 99.45493221 -6.1875 91.625 C3.3825 91.625 12.9525 91.625 22.8125 91.625 C21.93115662 97.79440368 20.84336815 101.53582008 18.25 106.9375 C17.89429932 107.68370605 17.53859863 108.42991211 17.17211914 109.19873047 C14.12965361 115.36934593 10.50647187 120.57802618 5.8125 125.625 C5.26078125 126.25535156 4.7090625 126.88570312 4.140625 127.53515625 C-7.49839972 140.14409969 -26.10939525 147.76744447 -43.09326172 148.80200195 C-69.70589851 149.34130212 -91.45786039 145.59668104 -111.2890625 126.61328125 C-127.16239757 110.03514559 -132.55645623 88.15787606 -132.5 65.8125 C-132.51611328 64.54857422 -132.53222656 63.28464844 -132.54882812 61.98242188 C-132.56023358 39.70756338 -124.92549899 18.47096689 -109.20703125 2.453125 C-80.77415761 -25.01987123 -29.66436028 -26.00099048 0 0 Z " fill="#4C3DEF" transform="translate(132.1875,638.375)"/>
<path d="M0 0 C6.32950359 5.3564605 8.76266769 9.35314406 13.3671875 17.02734375 C13.6971875 8.77734375 14.0271875 0.52734375 14.3671875 -7.97265625 C23.2771875 -7.97265625 32.1871875 -7.97265625 41.3671875 -7.97265625 C41.3671875 34.26734375 41.3671875 76.50734375 41.3671875 120.02734375 C32.4571875 120.02734375 23.5471875 120.02734375 14.3671875 120.02734375 C13.8721875 107.65234375 13.8721875 107.65234375 13.3671875 95.02734375 C12.3771875 96.69796875 11.3871875 98.36859375 10.3671875 100.08984375 C3.62247098 110.61160153 -6.01038072 117.70013618 -18.29956055 120.55932617 C-33.77928855 123.66574495 -49.65728193 122.04470322 -63.3828125 113.83984375 C-78.48019227 103.45354765 -86.12335102 89.65396099 -89.6328125 72.02734375 C-92.98619057 52.35719322 -90.62445525 31.20937462 -79.6953125 14.21484375 C-78.69090176 12.80714689 -77.67081579 11.41045638 -76.6328125 10.02734375 C-76.19453125 9.41246094 -75.75625 8.79757812 -75.3046875 8.1640625 C-67.99568283 -1.30823953 -55.23667243 -7.64028307 -43.55859375 -9.65625 C-27.99451207 -11.33941504 -12.83739574 -9.61852351 0 0 Z M-52.6328125 25.02734375 C-61.38691322 36.10990093 -63.46824582 48.13439707 -62.6328125 62.02734375 C-61.05438407 73.61140327 -56.97187712 83.08226045 -47.78515625 90.55859375 C-38.20980729 97.09277017 -27.91738675 98.01994266 -16.6328125 97.02734375 C-6.99913486 95.06273627 0.96720515 89.76053783 6.6796875 81.77734375 C14.42416581 69.08500429 15.62132499 56.36700454 12.3671875 42.02734375 C9.6716871 31.80813893 3.21111586 24.20288656 -5.6328125 18.52734375 C-20.82736384 10.22661663 -40.1997561 12.9303159 -52.6328125 25.02734375 Z " fill="#4C3DEF" transform="translate(264.6328125,665.97265625)"/>
<path d="M0 0 C1.41263387 1.18864868 2.80955318 2.39630854 4.1875 3.625 C5.10982422 4.40810547 5.10982422 4.40810547 6.05078125 5.20703125 C15.22570352 13.56821319 19.78179715 24.69271387 22.1875 36.625 C22.1875 44.545 22.1875 52.465 22.1875 60.625 C-10.1525 60.625 -42.4925 60.625 -75.8125 60.625 C-73.01203821 77.51195555 -73.01203821 77.51195555 -62.58203125 90.19140625 C-52.4662629 96.54245597 -42.81623133 98.09474489 -30.96484375 96.16015625 C-22.40988395 93.92555315 -15.84270412 88.81100588 -10.8125 81.625 C-9.8225 78.985 -8.8325 76.345 -7.8125 73.625 C1.7575 73.625 11.3275 73.625 21.1875 73.625 C19.41492314 87.80561488 12.71287639 98.47377967 1.8125 107.6171875 C-13.50799054 119.05845127 -32.57532789 122.26411295 -51.25 119.9375 C-66.11073391 117.33815414 -80.29136434 110.61063819 -89.8125 98.625 C-102.03207643 80.41543513 -105.86208118 59.57123275 -102.12890625 37.9140625 C-99.28336701 24.57638079 -93.46427945 14.15698787 -83.8125 4.625 C-83.27109375 4.06167969 -82.7296875 3.49835937 -82.171875 2.91796875 C-61.66948805 -16.70426522 -22.08653396 -16.63951714 0 0 Z M-68.125 22.9375 C-74.14272595 30.47637334 -75.8125 38.15312613 -75.8125 47.625 C-52.3825 47.625 -28.9525 47.625 -4.8125 47.625 C-4.8125 36.38298533 -6.17911103 28.98805115 -13.8125 20.625 C-20.80002605 13.79275231 -29.23076526 10.54885197 -38.9375 10.375 C-50.50391075 10.53046251 -60.20624879 14.40504557 -68.125 22.9375 Z " fill="#4C3DEF" transform="translate(918.8125,667.375)"/>
<path d="M0 0 C13.74766319 11.09133505 20.8115644 25.50188396 22.83203125 43.0234375 C24.73360593 63.5660993 20.58916064 82.69262629 7.3046875 98.859375 C4.48833177 101.8143968 1.55864392 104.3983502 -1.6953125 106.859375 C-2.30632812 107.32730469 -2.91734375 107.79523438 -3.546875 108.27734375 C-19.66574103 119.42336814 -40.22238963 120.22122741 -58.9453125 117.36328125 C-75.40211761 113.83994931 -88.88303322 104.62434581 -98.1328125 90.671875 C-108.13504705 73.20964052 -110.03791902 52.9013729 -105.66796875 33.4296875 C-101.32449819 17.48618512 -92.39342272 4.03724886 -78.0078125 -4.390625 C-54.012612 -17.85679104 -22.19792053 -16.59525049 0 0 Z M-69.6953125 21.859375 C-78.47576026 33.66291552 -81.15650958 46.86324785 -79.234375 61.328125 C-76.97548653 73.55269789 -72.06778323 82.7025351 -61.6953125 89.859375 C-52.51772093 95.09104556 -40.83656764 95.49744641 -30.6640625 93.1640625 C-28.17069199 92.24828753 -25.98523976 91.20145691 -23.6953125 89.859375 C-22.99148438 89.446875 -22.28765625 89.034375 -21.5625 88.609375 C-13.79572457 83.41183707 -8.46147235 75.58093378 -6.19140625 66.54296875 C-3.47327225 51.83936201 -4.33680896 37.61903748 -12.6953125 24.859375 C-17.15065362 19.24417235 -22.02027516 15.44765479 -28.6953125 12.859375 C-29.7471875 12.446875 -30.7990625 12.034375 -31.8828125 11.609375 C-45.73683385 8.88399375 -59.66340813 11.40947461 -69.6953125 21.859375 Z " fill="#4C3DEF" transform="translate(1263.6953125,669.140625)"/>
<path d="M0 0 C12.72995032 10.07095286 20.52054688 24.05940452 23.30859375 40.0078125 C25.55844224 59.40031185 23.62849041 79.30502559 11.7109375 95.37109375 C1.18309436 108.47846818 -12.56607713 116.84677623 -29.37646484 119.09716797 C-48.42878349 121.17142917 -67.50445539 118.55325364 -83.25 106.8125 C-96.20565119 95.74359413 -103.26837572 82.58898192 -106.25 65.8125 C-107.76917953 44.2108148 -105.4878097 24.50712127 -90.9375 7.4375 C-67.81963062 -16.65663076 -26.95561099 -19.12870016 0 0 Z M-69.5 24 C-78.83210323 35.67162771 -79.31007548 49.54914103 -78.25 63.8125 C-76.48420399 73.27716661 -72.05693671 82.01546044 -64.5 88.125 C-63.10898041 89.06016111 -61.69116979 89.95664285 -60.25 90.8125 C-59.20972656 91.43318359 -59.20972656 91.43318359 -58.1484375 92.06640625 C-49.43170811 96.36486215 -38.59890005 96.04791741 -29.21875 94.22265625 C-20.34250274 91.17495743 -13.37699742 84.31990088 -8.75 76.3125 C-2.79067783 64.10767352 -2.42396217 49.55338316 -6.21484375 36.55859375 C-9.99488115 26.53079643 -16.14971421 18.98995851 -25.9375 14.4375 C-41.1782946 8.02912202 -58.2948442 12.08022967 -69.5 24 Z " fill="#4C3DEF" transform="translate(2055.25,668.1875)"/>
<path d="M0 0 C1.96690854 1.65127938 3.72959453 3.37564602 5.49609375 5.23828125 C6.15738281 5.86863281 6.81867188 6.49898437 7.5 7.1484375 C19.72969772 19.56378528 23.3912907 36.41171386 23.87109375 53.30078125 C23.35314905 72.91512182 17.14054693 90.14058531 2.87109375 103.98828125 C-11.85209857 116.58880474 -30.5538618 120.0556296 -49.43359375 119.0234375 C-66.54021784 117.15629038 -82.51425565 110.42901852 -93.66015625 96.9453125 C-101.84137252 84.93348438 -106.74097995 71.78156383 -107.50390625 57.23828125 C-107.54515625 56.53445313 -107.58640625 55.830625 -107.62890625 55.10546875 C-108.18247234 36.35341735 -102.17192558 18.39138297 -89.44140625 4.55078125 C-65.53882567 -18.09376878 -26.28422218 -18.49326709 0 0 Z M-70.50390625 24.23828125 C-78.81686173 35.55217916 -80.81275435 48.81551253 -78.81640625 62.61328125 C-76.70310886 73.05381009 -72.0007558 82.35117554 -63.12890625 88.55078125 C-52.69232832 94.87128307 -42.23826962 95.83993712 -30.30859375 93.65234375 C-20.72244884 90.67544975 -13.7024128 84.12320872 -9.00390625 75.36328125 C-2.95463792 61.8976783 -3.39883186 48.22170198 -7.50390625 34.23828125 C-11.6462191 24.45900658 -18.01068304 17.44599667 -27.78515625 13.26171875 C-43.74308131 7.71789414 -59.40969655 11.60430579 -70.50390625 24.23828125 Z " fill="#4C3DEF" transform="translate(1907.50390625,668.76171875)"/>
<path d="M0 0 C8.91 0 17.82 0 27 0 C27.01981934 2.24989746 27.03963867 4.49979492 27.06005859 6.81787109 C27.12720022 14.281807 27.20483524 21.74560782 27.28752708 29.20938683 C27.33730653 33.7311946 27.38363704 38.25298107 27.421875 42.77490234 C27.45896108 47.14518252 27.50538177 51.51527604 27.55806351 55.88539505 C27.57648434 57.54616623 27.59163685 59.20697722 27.60334396 60.8678093 C27.62495368 80.68770036 27.62495368 80.68770036 36.63671875 97.85546875 C43.97068213 104.53019946 52.38253605 106.3413418 62.09765625 106.2109375 C70.36072235 105.61039165 77.83162949 102.56571362 84 97 C93.68673509 85.51550839 93.45489668 69.88936932 93.51171875 55.6640625 C93.5286117 54.04738037 93.54676792 52.430711 93.56611633 50.8140564 C93.61312246 46.60896804 93.6432483 42.4039314 93.66955566 38.19866943 C93.69961398 33.88755068 93.7460557 29.57660954 93.79101562 25.265625 C93.87648506 16.84382377 93.94255825 8.42203906 94 0 C102.91 0 111.82 0 121 0 C121 42.24 121 84.48 121 128 C112.09 128 103.18 128 94 128 C93.67 120.74 93.34 113.48 93 106 C91.2675 108.536875 91.2675 108.536875 89.5 111.125 C85.83453482 116.15210805 82.30402958 119.77782819 77 123 C76.39800781 123.37640625 75.79601563 123.7528125 75.17578125 124.140625 C63.33911627 130.79099442 48.4390264 131.75641818 35.39453125 128.6796875 C23.40225985 125.27568224 14.33911574 119.21110399 7.46484375 108.6328125 C-0.2583037 94.75174216 -0.2865514 79.97458418 -0.1953125 64.55078125 C-0.19157561 62.68320366 -0.18873184 60.81562409 -0.18673706 58.94804382 C-0.17915377 54.06713307 -0.1595517 49.18634408 -0.1373291 44.30548096 C-0.11675553 39.3110926 -0.10771088 34.31668428 -0.09765625 29.32226562 C-0.07630008 19.54811537 -0.04116205 9.77408693 0 0 Z " fill="#4C3DEF" transform="translate(1308,658)"/>
<path d="M0 0 C8.91 0 17.82 0 27 0 C27.01981934 2.17883789 27.03963867 4.35767578 27.06005859 6.60253906 C27.12729793 13.84294497 27.2049302 21.08321347 27.28752708 28.32345963 C27.3372379 32.70844682 27.38356774 37.09341281 27.421875 41.47851562 C27.45904938 45.71912963 27.50549121 49.95955452 27.55806351 54.20000458 C27.57643828 55.8088826 27.59160692 57.41780089 27.60334396 59.02674103 C27.4707989 79.80857575 27.4707989 79.80857575 36.63671875 97.84765625 C43.95306686 104.53923756 52.39015389 106.34123955 62.09765625 106.2109375 C70.34928234 105.61122309 77.84879477 102.57379324 84 97 C93.33525258 85.56533472 93.45753916 71.46897286 93.51171875 57.421875 C93.52860102 55.75749417 93.54675591 54.09312582 93.56611633 52.42877197 C93.61323792 48.08884584 93.64329033 43.74897028 93.66955566 39.40887451 C93.6995542 34.96388767 93.74601724 30.51907457 93.79101562 26.07421875 C93.87661725 17.38288436 93.94262678 8.69156661 94 0 C102.91 0 111.82 0 121 0 C121 42.24 121 84.48 121 128 C112.09 128 103.18 128 94 128 C93.67 120.74 93.34 113.48 93 106 C91.989375 107.52625 90.97875 109.0525 89.9375 110.625 C82.24537697 121.53243045 72.38048898 126.84219617 59.34375 129.4921875 C46.98483189 131.369126 32.81203165 130.0727648 22 123.25 C20.63753319 122.2035426 19.30289443 121.11975666 18 120 C17.31679688 119.44828125 16.63359375 118.8965625 15.9296875 118.328125 C5.2178339 108.79742636 0.86143102 94.69198803 -0.16576195 80.7501545 C-0.40872072 74.96091711 -0.34563834 69.17152803 -0.29296875 63.37890625 C-0.28735789 61.53946787 -0.28309486 59.70002495 -0.28010559 57.86058044 C-0.2687739 53.07171762 -0.23941056 48.28313758 -0.20599365 43.49438477 C-0.17503768 38.58679019 -0.16154628 33.67914891 -0.14648438 28.77148438 C-0.1145269 19.18084678 -0.06185777 9.59049139 0 0 Z " fill="#4C3DEF" transform="translate(578,658)"/>
<path d="M0 0 C10.23 0 20.46 0 31 0 C38.97725492 14.9933036 46.63064243 30.1364176 54.20281982 45.3369751 C55.76389168 48.4695542 57.32737663 51.60092852 58.890625 54.73242188 C61.92937131 60.82047471 64.96555998 66.90979969 68 73 C73.43805756 62.77338046 78.82462029 52.54849701 83.75 42.0625 C88.29692156 32.49099128 92.95208682 22.97920735 97.6875 13.5 C97.99772095 12.87715118 98.30794189 12.25430237 98.62756348 11.61257935 C99.50333874 9.8551666 100.38244831 8.09941664 101.26171875 6.34375 C101.76662842 5.33505859 102.27153809 4.32636719 102.79174805 3.28710938 C104 1 104 1 105 0 C107.29151417 -0.08790975 109.58572524 -0.10694038 111.87890625 -0.09765625 C112.90889992 -0.09553383 112.90889992 -0.09553383 113.95970154 -0.09336853 C116.16067801 -0.08775479 118.36155409 -0.07520007 120.5625 -0.0625 C122.05143083 -0.05748676 123.54036324 -0.05292355 125.02929688 -0.04882812 C128.68623075 -0.03778093 132.34310558 -0.02050713 136 0 C134.74557318 4.01541729 133.26906124 7.66489703 131.3125 11.38671875 C130.51960571 12.90289795 130.51960571 12.90289795 129.71069336 14.44970703 C129.14616455 15.51817871 128.58163574 16.58665039 128 17.6875 C127.41549072 18.80237793 126.83098145 19.91725586 126.22875977 21.06591797 C124.49022481 24.37960691 122.74582752 27.69014864 121 31 C120.11303637 32.68606912 119.22629262 34.37225394 118.33984375 36.05859375 C117.14106136 38.33806019 115.94162807 40.61717233 114.74023438 42.89526367 C111.47500354 49.08724026 108.23517717 55.29227619 105 61.5 C101.21764826 68.75490279 97.43076077 76.0073445 93.625 83.25 C93.24472656 83.97509766 92.86445312 84.70019531 92.47265625 85.44726562 C92.10269531 86.15044922 91.73273438 86.85363281 91.3515625 87.578125 C91.00430115 88.25113144 90.65703979 88.92413788 90.29925537 89.61753845 C89 92 89 92 87.48614502 94.33119202 C82.69096943 102.03841101 82.13162436 108.47098407 82.1953125 117.41796875 C82.18403417 118.76990605 82.17014136 120.12182379 82.15377808 121.47370911 C82.11805908 124.99358199 82.11732515 128.51258079 82.12445068 132.03259277 C82.12537019 135.63971799 82.09273348 139.24653919 82.0625 142.85351562 C82.00582866 149.90302527 82.00425114 156.94948852 82 164 C72.76 164 63.52 164 54 164 C54.07863281 159.88660156 54.15726563 155.77320313 54.23828125 151.53515625 C54.26463813 148.17508845 54.27766169 144.81553233 54.28195953 141.45539093 C54.28997676 137.95134111 54.31933851 134.45101476 54.40795898 130.94799805 C54.87324669 111.70078302 52.16750376 97.33000534 41.65031433 80.65208435 C39.03794599 76.45396218 36.71884868 72.10180224 34.375 67.75 C33.84592041 66.789729 33.31684082 65.82945801 32.77172852 64.84008789 C26.93940295 54.18691551 21.45541793 43.35017056 15.93701172 32.53222656 C15.16247445 31.01495377 14.38789803 29.49770096 13.61328125 27.98046875 C13.23677429 27.24184601 12.86026733 26.50322327 12.47235107 25.74221802 C10.48713358 21.85981093 8.47304846 17.9955118 6.41552734 14.15087891 C5.99708054 13.36844315 5.57863373 12.58600739 5.14750671 11.77986145 C4.34423501 10.28274499 3.53727114 8.78760209 2.72615051 7.29472351 C0 2.21817747 0 2.21817747 0 0 Z " fill="#4C3DEF" transform="translate(1008,622)"/>
<path d="M0 0 C2.16315787 2.88421049 3.51515027 4.82966052 4.91015625 7.984375 C5.25473877 8.74645264 5.59932129 9.50853027 5.9543457 10.29370117 C6.50288208 11.50956909 6.50288208 11.50956909 7.0625 12.75 C16.46527656 33.00644384 29.51776556 50.95600089 45 67 C45.83660156 67.89976562 46.67320312 68.79953125 47.53515625 69.7265625 C64.18465006 87.15453943 85.23784963 99.95394811 107 110 C107.69577148 110.32564941 108.39154297 110.65129883 109.10839844 110.98681641 C123.25871892 117.53221724 138.00813905 121.81700684 153 126 C153 126.66 153 127.32 153 128 C102.51 128 52.02 128 0 128 C0 85.76 0 43.52 0 0 Z " fill="#4C3DEF" transform="translate(490,450)"/>
<path d="M0 0 C8.91 0 17.82 0 27 0 C27 10.56 27 21.12 27 32 C37.23 32 47.46 32 58 32 C58 39.59 58 47.18 58 55 C47.77 55 37.54 55 27 55 C27.12013474 66.33313422 27.12013474 66.33313422 27.2578125 77.66601562 C27.31792104 82.29398414 27.37605553 86.92191391 27.421875 91.55004883 C27.45898121 95.28492588 27.50540656 99.01958535 27.55806351 102.75427437 C27.57647386 104.17304192 27.59163009 105.59185586 27.60334396 107.0106945 C27.26964818 120.26661402 27.26964818 120.26661402 32.375 132 C36.01971259 134.77692387 39.04988135 135.1037106 43.546875 135.31640625 C44.30838867 135.35451416 45.06990234 135.39262207 45.85449219 135.43188477 C46.81000977 135.47498779 47.76552734 135.51809082 48.75 135.5625 C51.8025 135.706875 54.855 135.85125 58 136 C58 143.92 58 151.84 58 160 C54.1225 160.061875 50.245 160.12375 46.25 160.1875 C44.4561084 160.22846802 44.4561084 160.22846802 42.62597656 160.27026367 C31.5532994 160.35447687 19.46109674 158.68909069 10.875 151.12890625 C2.6206525 142.61661039 -0.1336135 132.36221871 -0.11352539 120.73120117 C-0.11367142 120.01846039 -0.11381744 119.3057196 -0.1139679 118.57138062 C-0.11327432 116.2285451 -0.105508 113.88579028 -0.09765625 111.54296875 C-0.0957901 109.91343733 -0.09436713 108.28390535 -0.09336853 106.65437317 C-0.08955888 102.37511636 -0.07974188 98.09589374 -0.06866455 93.81665039 C-0.05841702 89.44613101 -0.05386376 85.07560607 -0.04882812 80.70507812 C-0.03811818 72.13670135 -0.02053399 63.56835887 0 55 C-5.94 55 -11.88 55 -18 55 C-18 47.41 -18 39.82 -18 32 C-12.06 32 -6.12 32 0 32 C0 21.44 0 10.88 0 0 Z " fill="#4C3DEF" transform="translate(499,626)"/>
<path d="M0 0 C0 9.57 0 19.14 0 29 C-3.2175 29.226875 -6.435 29.45375 -9.75 29.6875 C-21.08886434 30.67124905 -32.27494061 32.89005601 -40 42 C-47.24858133 52.17545329 -46.31901046 66.11631265 -46.4140625 78.046875 C-46.43282042 79.55431116 -46.45239707 81.06173733 -46.4727478 82.56915283 C-46.52358764 86.49477182 -46.5634675 90.42042467 -46.60089111 94.34619141 C-46.64123665 98.36889691 -46.69218789 102.39146746 -46.7421875 106.4140625 C-46.83837492 114.27595524 -46.92197535 122.13790601 -47 130 C-55.91 130 -64.82 130 -74 130 C-74 87.76 -74 45.52 -74 2 C-65.09 2 -56.18 2 -47 2 C-46.67 8.93 -46.34 15.86 -46 23 C-44.948125 21.535625 -43.89625 20.07125 -42.8125 18.5625 C-31.34165764 4.32492278 -17.85664957 0 0 0 Z " fill="#4C3DEF" transform="translate(804,656)"/>
<path d="M0 0 C0 9.57 0 19.14 0 29 C-3.073125 29.2475 -6.14625 29.495 -9.3125 29.75 C-20.97954892 30.85733945 -30.99286891 32.74352931 -39 42 C-45.96393241 51.99895967 -45.32456814 64.62802395 -45.4140625 76.2890625 C-45.43280791 77.84419747 -45.45238373 79.39932264 -45.4727478 80.95443726 C-45.5237193 85.01489433 -45.56353037 89.07538426 -45.60089111 93.13598633 C-45.64115219 97.29256074 -45.6921428 101.44900266 -45.7421875 105.60546875 C-45.8385317 113.73689459 -45.92207326 121.86837678 -46 130 C-54.91 130 -63.82 130 -73 130 C-73 87.76 -73 45.52 -73 2 C-64.09 2 -55.18 2 -46 2 C-45.67 8.93 -45.34 15.86 -45 23 C-44.030625 21.659375 -43.06125 20.31875 -42.0625 18.9375 C-31.11066887 4.92883247 -17.32725053 0 0 0 Z " fill="#4C3DEF" transform="translate(1533,656)"/>
</svg>
